<?xml version="1.0" encoding="UTF-8"?><svg id="uuid-577b89f9-0922-40b3-8ac7-519a5e41a18e" xmlns="http://www.w3.org/2000/svg" viewBox="0 0 355.76 355.76"><defs><style>.uuid-f9bc772b-a28f-4aeb-8bab-fbc365d97c4a{fill:#fff;}.uuid-b5465127-2b46-4985-a48a-e04393d733e1{fill:#010001;}</style></defs><g id="uuid-d0b4273b-8a20-4b6f-935f-b578253d8b72"><path class="uuid-b5465127-2b46-4985-a48a-e04393d733e1" d="M284.51,268.25c-.67,0-1.34-.22-1.9-.68-1.28-1.05-1.47-2.94-.42-4.22,13.26-16.16,22.68-35.43,27.25-55.72.36-1.62,1.97-2.63,3.59-2.27,1.62.36,2.63,1.97,2.27,3.59-4.77,21.2-14.62,41.33-28.46,58.21-.59.72-1.45,1.1-2.32,1.1Z"/><path class="uuid-b5465127-2b46-4985-a48a-e04393d733e1" d="M71.89,269.02c-.86,0-1.71-.37-2.31-1.08-14.2-17.05-24.26-37.45-29.11-58.99-.36-1.62.65-3.22,2.27-3.59,1.62-.36,3.22.65,3.59,2.27,4.64,20.62,14.28,40.15,27.87,56.47,1.06,1.27.89,3.17-.39,4.22-.56.47-1.24.69-1.92.69Z"/><path class="uuid-b5465127-2b46-4985-a48a-e04393d733e1" d="M177.88,69.55c-59.74,0-108.33,48.6-108.33,108.33s48.6,108.33,108.33,108.33,108.33-48.6,108.33-108.33-48.6-108.33-108.33-108.33Z"/><path class="uuid-b5465127-2b46-4985-a48a-e04393d733e1" d="M177.88,355.76C79.8,355.76,0,275.96,0,177.88S79.8,0,177.88,0s177.88,79.8,177.88,177.88-79.8,177.88-177.88,177.88ZM177.88,12C86.41,12,12,86.41,12,177.88s74.41,165.88,165.88,165.88,165.88-74.41,165.88-165.88S269.35,12,177.88,12Z"/><path d="M28.2,173.45c.06-2.93.35-4.87,1.02-6.13.88-1.67,2.66-2.69,4.89-2.81,2.14-.11,3.93,1.2,5.36,2.8.35.39.98.32,1.22-.2,1.02-2.18,2.96-3.27,5.58-3.22,2.47.05,4.57,1.3,5.73,3.2.96,1.61,1.23,3.7,1.15,7.31l-.21,9.64c-.01.55-.47.98-1.02.97l-22.96-.49c-.55-.01-.98-.47-.97-1.02l.22-10.07ZM36.88,178.77c.55.01,1-.42,1.02-.97l.08-3.6c.05-2.47-.77-3.62-2.43-3.66-1.48-.03-2.49.62-2.55,3.62l-.08,3.53c-.01.55.42,1,.97,1.02l3,.06ZM47.17,178.99c.55.01,1-.42,1.01-.97l.08-3.53c.07-3.22-.9-4.3-2.63-4.33-1.73-.04-2.81.72-2.88,4l-.08,3.74c-.01.55.42,1,.97,1.01l3.53.08Z"/><path d="M67.54,117.7l-3.74-.51c-.43-.06-.84.16-1.03.55l-3.24,6.66c-.19.38-.11.84.2,1.14l2.7,2.66c.3.3.38.76.2,1.14l-1.86,3.82c-.3.62-1.14.75-1.61.25l-16.91-17.75c-.29-.3-.36-.75-.17-1.12l2.33-4.79c.18-.38.59-.6,1-.55l24.24,2.68c.68.08,1.09.8.78,1.42l-1.87,3.84c-.19.39-.6.61-1.03.55ZM57.16,116.11c-2.14-.28-3.92-.52-5.63-.78-.96-.15-1.54,1.02-.84,1.69,1.27,1.24,2.57,2.53,4.07,4.01.48.48,1.3.35,1.6-.26l1.57-3.23c.3-.61-.1-1.33-.77-1.42Z"/><path d="M92.3,85.55l-11.93-13.5c-.36-.41-.99-.45-1.4-.09l-3.46,3.06c-.41.36-1.04.32-1.4-.09l-1.96-2.22c-.36-.41-.32-1.04.09-1.4l13.05-11.53c.41-.36,1.04-.32,1.4.09l1.96,2.22c.36.41.32,1.04-.09,1.4l-3.49,3.08c-.41.36-.45.99-.09,1.4l11.93,13.51c.36.41.32,1.04-.09,1.4l-3.12,2.76c-.41.36-1.04.32-1.4-.09Z"/><path d="M145.71,56.1l-2.45-8.04c-.16-.53-.71-.82-1.24-.66l-7.26,2.21c-.53.16-.82.71-.66,1.24l2.45,8.04c.16.53-.14,1.08-.66,1.24l-3.78,1.15c-.53.16-1.08-.14-1.24-.66l-6.69-21.98c-.16-.53.14-1.08.66-1.24l3.78-1.15c.53-.16,1.08.14,1.24.66l2.14,7.03c.16.53.71.82,1.24.66l7.26-2.21c.53-.16.82-.71.66-1.24l-2.14-7.03c-.16-.53.14-1.08.66-1.24l3.78-1.15c.53-.16,1.08.14,1.24.66l6.69,21.98c.16.53-.14,1.08-.66,1.24l-3.78,1.15c-.53.16-1.08-.14-1.24-.66Z"/><path d="M200,54.48l-3.73-9.01c-.13-.32-.43-.55-.78-.6l-1.53-.22c-.54-.08-1.05.3-1.12.84l-1.04,7.3c-.08.54-.58.92-1.12.84l-3.91-.56c-.54-.08-.92-.58-.84-1.12l3.25-22.72c.08-.54.58-.92,1.12-.84l10.35,1.48c3.85.55,5.96,2,7.03,3.75.92,1.52,1.09,3.33.85,5.01-.51,3.54-2.62,5.33-5.42,5.99-.6.14-.9.8-.65,1.36l3.8,8.34c.33.71-.27,1.51-1.05,1.4l-4.43-.63c-.35-.05-.64-.28-.78-.6ZM197.89,40.57c1.47.21,2.52.11,3.22-.29.77-.42,1.13-1.16,1.26-2.07.14-1.02.09-1.92-.56-2.58-.56-.58-1.54-.97-3.18-1.2l-3.14-.45c-.54-.08-1.05.3-1.12.84l-.59,4.15c-.08.54.3,1.05.84,1.12l3.28.47Z"/><path d="M246.75,74.66c-6.41-4.27-7.78-10.88-3.07-17.94,4.45-6.67,11.36-8.05,17.77-3.78,5.5,3.67,7.07,10.54,2.47,17.45-4.67,7-11.31,8.17-17.16,4.27ZM258.2,57.11c-3.15-2.1-6.62-1.1-9.36,3.02-2.8,4.2-2.43,7.98.71,10.08,2.76,1.84,6.15,1.34,9.31-3.39,2.64-4.27,2.25-7.76-.66-9.7Z"/><path d="M285.17,115.72c-3.88-6.66-2.2-13.2,5.13-17.46,6.93-4.03,13.75-2.23,17.62,4.43,3.32,5.71,1.72,12.58-5.46,16.76-7.27,4.23-13.76,2.36-17.29-3.72ZM303.18,105c-1.9-3.27-5.46-3.9-9.74-1.41-4.37,2.54-5.7,6.1-3.79,9.36,1.67,2.87,4.94,3.92,9.85,1.05,4.25-2.68,5.43-5.98,3.67-9.01Z"/><path d="M303.63,179.2c4.52-.23,7.65-.38,9.97-.48,1.14-.05,1.31-1.68.2-1.95-2.41-.6-5.71-1.42-10.69-2.66-.43-.11-.76-.49-.78-.93l-.19-3.76c-.02-.44.26-.86.68-1.01,4.77-1.71,7.99-2.86,10.39-3.7,1.08-.38.76-1.99-.38-1.93-2.33.12-5.47.28-9.97.51-.55.03-1.04-.4-1.07-.95l-.19-3.79c-.03-.55.39-1.02.94-1.04l22.93-1.16c.55-.03,1.02.39,1.04.94l.35,6.86c.02.43-.25.83-.65.98-6.75,2.57-10.3,3.88-12.75,4.71-.95.32-.89,1.69.1,1.91,2.55.56,6.25,1.47,13.14,3.31.42.11.73.48.75.91l.34,6.82c.03.55-.39,1.02-.94,1.04l-22.93,1.16c-.55.03-1.02-.39-1.04-.94l-.19-3.8c-.03-.55.41-1.02.96-1.04Z"/><path d="M105.3,279.39c2.35,1.76,3.76,3.12,4.39,4.39.92,1.84.59,4.11-.91,6.12-.89,1.19-2.04,1.92-3.39,2.16-1.2.21-1.96,1.34-1.64,2.52.46,1.68.05,3.4-1.19,5.06-1.48,1.98-3.72,2.96-5.94,2.8-1.87-.16-3.73-1.16-6.61-3.32l-6.93-5.19c-.88-.66-1.05-1.9-.4-2.77l12.58-16.81c.66-.88,1.9-1.05,2.77-.4l7.27,5.44ZM90.36,290.81c-.66.88-.48,2.12.4,2.77l2.04,1.52c2.58,1.93,4.02,1.77,5.05.38,1.04-1.39,1.05-2.7-1.58-4.67l-2.21-1.65c-.88-.66-2.12-.48-2.77.4l-.93,1.24ZM96.52,282.57c-.66.88-.48,2.12.4,2.77l2.09,1.57c1.98,1.48,3.4,1.48,4.39.15.89-1.19.94-2.38-1.46-4.18l-2.04-1.52c-.88-.66-2.12-.48-2.77.4l-.61.82Z"/><path d="M150.91,325.12l-2.66-8.21c-.22-.67-.77-1.17-1.45-1.32h0c-1.07-.24-2.13.43-2.37,1.5l-1.19,5.27c-.24,1.07-1.3,1.74-2.37,1.5l-1.93-.43c-1.07-.24-1.74-1.3-1.5-2.37l4.62-20.48c.24-1.07,1.3-1.74,2.37-1.5l9.24,2.08c3.79.86,5.78,2.46,6.71,4.3.8,1.59.83,3.41.45,5.06-.7,3.1-2.55,4.73-4.96,5.35-1.1.29-1.68,1.5-1.29,2.56l2.12,5.85c.53,1.47-.77,2.95-2.3,2.61l-2.06-.46c-.68-.15-1.23-.66-1.45-1.32ZM150.09,311.62c1.45.33,2.5.31,3.23-.03.81-.36,1.22-1.07,1.42-1.96.23-1,.25-1.9-.35-2.62-.51-.62-1.46-1.09-3.08-1.45l-2.14-.48c-1.07-.24-2.13.43-2.37,1.5l-.49,2.17c-.24,1.07.43,2.13,1.5,2.37l2.27.51Z"/><path d="M215.08,323.51l-1.15-2.04c-.42-.74-1.27-1.14-2.11-.97l-5.86,1.17c-.83.17-1.47.85-1.58,1.69l-.3,2.35c-.11.84-.74,1.52-1.58,1.69l-2.08.41c-1.35.27-2.56-.89-2.34-2.26l3.56-22.11c.13-.82.76-1.47,1.57-1.63l3.87-.77c.82-.16,1.66.21,2.09.92l11.45,19.12c.7,1.17.03,2.69-1.31,2.96l-2.11.42c-.84.17-1.69-.22-2.11-.97ZM209.74,313.71c-.23-.4-.44-.78-.65-1.16-.93-1.66-3.44-1.17-3.68.71-.06.43-.11.87-.17,1.32-.18,1.35,1.02,2.48,2.35,2.21l.83-.17c1.32-.26,2-1.75,1.33-2.93Z"/><path d="M246.6,287.82c-.64-.89-.44-2.12.44-2.77l5.49-3.98c3.61-2.61,5.27-3.51,7.41-3.8,3.41-.47,7.47,1.88,10.47,6.02,2.3,3.18,3.39,6.66,2.96,9.81-.44,3.37-2.49,5.47-6.53,8.4l-5.18,3.75c-.89.64-2.12.44-2.77-.44l-12.31-16.99ZM264.08,297.37c2.55-1.84,3.34-2.86,3.5-4.63.13-1.45-.6-3.54-2.28-5.86-1.66-2.29-3.7-3.78-5.34-3.81-1.16-.03-2.4.48-3.81,1.49l-1.4,1.02c-.89.64-1.08,1.88-.44,2.77l6.49,8.95c.64.89,1.88,1.08,2.77.44l.51-.37Z"/><path class="uuid-f9bc772b-a28f-4aeb-8bab-fbc365d97c4a" d="M199.64,135.44c11.19,3.57,18.97,6.93,23.08,10.85,5.88,5.65,8.14,14.49,5.11,23.97-1.89,5.91-5.26,10.3-10.56,12.96-3.88,1.95-5.02,6.84-2.47,10.36,4.07,5.6,4.79,12.51,2.23,20.53-2.9,9.09-9.73,15.46-17.74,17.84-7.05,2.1-15.24.94-28.93-3.44l-38.97-12.44c-3.64-1.16-5.64-5.05-4.48-8.68l25.48-79.79c1.16-3.64,5.05-5.64,8.68-4.48l38.58,12.32ZM173.41,158.54c-1.16,3.64.85,7.52,4.48,8.68l8.56,2.73c1.84.59,3.33.92,5.04,1.03,3.41.22,5.4-1.47,6.41-4.63.93-2.9.63-5.6-2.15-7.36-1.32-.86-2.86-1.49-5.1-2.21l-8.56-2.73c-3.64-1.16-7.52.85-8.68,4.48h0ZM161.97,194.36c-1.16,3.64.85,7.52,4.48,8.68l8.29,2.65c2.63.84,5.22,1.38,6.93,1.49,4.02.12,5.87-2.04,6.88-5.2,1.05-3.29.75-6-2.46-8.19-1.54-1.07-4-2-6.64-2.84l-8.29-2.65c-3.64-1.16-7.52.85-8.68,4.48l-.5,1.58Z"/></g></svg>