<?xml version="1.0" encoding="UTF-8"?><svg id="uuid-48a64a1f-cc46-4c9e-8fd2-01a459ef64b0" xmlns="http://www.w3.org/2000/svg" viewBox="0 0 216.67 216.67"><defs><style>.uuid-3cd09058-bd34-4c33-aaaa-fda1751770fb{fill:#010001;}</style></defs><g id="uuid-daaec687-89ec-4b83-8349-5c0e6e625515"><path class="uuid-3cd09058-bd34-4c33-aaaa-fda1751770fb" d="M126.2,89.46c-1.32-.86-2.86-1.49-5.1-2.21l-8.56-2.73c-3.64-1.16-7.52.85-8.68,4.48-1.16,3.64.85,7.52,4.48,8.68l8.56,2.73c1.84.59,3.33.92,5.04,1.03,3.41.22,5.4-1.47,6.41-4.63.93-2.9.63-5.6-2.15-7.36Z"/><path class="uuid-3cd09058-bd34-4c33-aaaa-fda1751770fb" d="M116.54,124.24c-1.54-1.07-4-2-6.64-2.84l-8.29-2.65c-3.64-1.16-7.52.85-8.68,4.48l-.5,1.58c-1.16,3.64.85,7.52,4.48,8.68l8.29,2.65c2.63.84,5.22,1.38,6.93,1.49,4.02.12,5.87-2.04,6.88-5.2,1.05-3.29.75-6-2.46-8.19Z"/><path class="uuid-3cd09058-bd34-4c33-aaaa-fda1751770fb" d="M108.33,0C48.6,0,0,48.6,0,108.33s48.6,108.33,108.33,108.33,108.33-48.6,108.33-108.33S168.07,0,108.33,0ZM158.29,100.72c-1.89,5.91-5.26,10.3-10.56,12.96-3.88,1.95-5.02,6.84-2.47,10.36,4.07,5.6,4.79,12.51,2.23,20.53-2.9,9.09-9.73,15.46-17.74,17.84-7.05,2.1-15.24.94-28.93-3.44l-38.97-12.44c-3.64-1.16-5.64-5.05-4.48-8.68l25.48-79.79c1.16-3.64,5.05-5.64,8.68-4.48l38.58,12.32c11.19,3.57,18.97,6.93,23.08,10.85,5.88,5.65,8.14,14.49,5.11,23.97Z"/></g></svg>