<?xml version="1.0" encoding="UTF-8"?><svg id="uuid-d35d61dd-a5e0-47d5-ad50-f53b2ee4c2fc" xmlns="http://www.w3.org/2000/svg" viewBox="0 0 402.99 402.49"><defs><style>.uuid-bd639d50-1b99-413a-9f5c-7bfc2d6ae7e4{fill:#fff;}.uuid-2ce18c21-6b1a-432c-b23c-fd6639372d35{fill:#010001;}</style></defs><g id="uuid-47741ce8-e1e4-4f51-a11c-4d6b502bd5cf"><path class="uuid-2ce18c21-6b1a-432c-b23c-fd6639372d35" d="M308.04,291.61c-.67,0-1.34-.22-1.9-.68-1.28-1.05-1.47-2.94-.42-4.22,13.26-16.16,22.68-35.43,27.25-55.72.36-1.62,1.97-2.63,3.59-2.27,1.62.36,2.63,1.97,2.27,3.59-4.77,21.2-14.61,41.33-28.46,58.21-.59.72-1.45,1.1-2.32,1.1Z"/><path class="uuid-2ce18c21-6b1a-432c-b23c-fd6639372d35" d="M95.41,292.38c-.86,0-1.71-.37-2.31-1.08-14.2-17.05-24.26-37.45-29.11-58.99-.36-1.62.65-3.22,2.27-3.59,1.62-.36,3.22.65,3.59,2.27,4.64,20.62,14.28,40.15,27.87,56.47,1.06,1.27.89,3.17-.39,4.22-.56.47-1.24.69-1.92.69Z"/><path class="uuid-2ce18c21-6b1a-432c-b23c-fd6639372d35" d="M201.4,92.9c-59.74,0-108.33,48.6-108.33,108.33s48.6,108.33,108.33,108.33,108.33-48.6,108.33-108.33-48.6-108.33-108.33-108.33Z"/><path class="uuid-2ce18c21-6b1a-432c-b23c-fd6639372d35" d="M201.4,379.11c-98.08,0-177.88-79.8-177.88-177.88S103.32,23.35,201.4,23.35s177.88,79.8,177.88,177.88-79.8,177.88-177.88,177.88ZM201.4,35.35c-91.47,0-165.88,74.41-165.88,165.88s74.41,165.88,165.88,165.88,165.88-74.41,165.88-165.88S292.87,35.35,201.4,35.35Z"/><path d="M51.72,196.8c.06-2.93.35-4.87,1.02-6.13.88-1.67,2.66-2.69,4.89-2.81,2.14-.11,3.93,1.2,5.36,2.8.35.39.98.32,1.22-.2,1.02-2.18,2.96-3.27,5.58-3.22,2.47.05,4.57,1.3,5.73,3.2.96,1.61,1.23,3.7,1.15,7.31l-.21,9.64c-.01.55-.47.98-1.02.97l-22.96-.49c-.55-.01-.98-.47-.97-1.02l.22-10.07ZM60.41,202.12c.55.01,1-.42,1.02-.97l.08-3.6c.05-2.47-.77-3.62-2.43-3.66-1.48-.03-2.49.62-2.55,3.62l-.08,3.53c-.01.55.42,1,.97,1.02l3,.06ZM70.69,202.34c.55.01,1-.42,1.01-.97l.08-3.53c.07-3.22-.9-4.3-2.63-4.33-1.73-.04-2.81.72-2.88,4l-.08,3.74c-.01.55.42,1,.97,1.01l3.53.08Z"/><path d="M91.06,141.05l-3.74-.51c-.43-.06-.84.16-1.03.55l-3.24,6.66c-.19.38-.11.84.2,1.14l2.7,2.66c.3.3.38.76.2,1.14l-1.86,3.82c-.3.62-1.14.75-1.61.25l-16.91-17.75c-.29-.3-.36-.75-.17-1.12l2.33-4.79c.18-.38.59-.6,1-.55l24.24,2.68c.68.08,1.09.8.78,1.42l-1.87,3.84c-.19.39-.6.61-1.03.55ZM80.68,139.46c-2.14-.28-3.92-.52-5.63-.78-.96-.15-1.54,1.02-.84,1.69,1.27,1.24,2.57,2.53,4.07,4.01.48.48,1.3.35,1.6-.26l1.57-3.23c.3-.61-.1-1.33-.77-1.42Z"/><path d="M115.82,108.9l-11.93-13.5c-.36-.41-.99-.45-1.4-.09l-3.46,3.06c-.41.36-1.04.32-1.4-.09l-1.96-2.22c-.36-.41-.32-1.04.09-1.4l13.05-11.53c.41-.36,1.04-.32,1.4.09l1.96,2.22c.36.41.32,1.04-.09,1.4l-3.49,3.08c-.41.36-.45.99-.09,1.4l11.93,13.51c.36.41.32,1.04-.09,1.4l-3.12,2.76c-.41.36-1.04.32-1.4-.09Z"/><path d="M169.23,79.45l-2.45-8.04c-.16-.53-.71-.82-1.24-.66l-7.26,2.21c-.53.16-.82.71-.66,1.24l2.45,8.04c.16.53-.14,1.08-.66,1.24l-3.78,1.15c-.53.16-1.08-.14-1.24-.66l-6.69-21.98c-.16-.53.14-1.08.66-1.24l3.78-1.15c.53-.16,1.08.14,1.24.66l2.14,7.03c.16.53.71.82,1.24.66l7.26-2.21c.53-.16.82-.71.66-1.24l-2.14-7.03c-.16-.53.14-1.08.66-1.24l3.78-1.15c.53-.16,1.08.14,1.24.66l6.69,21.98c.16.53-.14,1.08-.66,1.24l-3.78,1.15c-.53.16-1.08-.14-1.24-.66Z"/><path d="M223.52,77.83l-3.73-9.01c-.13-.32-.43-.55-.78-.6l-1.53-.22c-.54-.08-1.05.3-1.12.84l-1.04,7.3c-.08.54-.58.92-1.12.84l-3.91-.56c-.54-.08-.92-.58-.84-1.12l3.25-22.72c.08-.54.58-.92,1.12-.84l10.35,1.48c3.85.55,5.96,2,7.03,3.75.92,1.52,1.09,3.33.85,5.01-.51,3.54-2.62,5.33-5.42,5.99-.6.14-.9.8-.65,1.36l3.8,8.34c.33.71-.27,1.51-1.05,1.4l-4.43-.63c-.35-.05-.64-.28-.78-.6ZM221.41,63.92c1.47.21,2.52.11,3.22-.29.77-.42,1.13-1.16,1.26-2.07.14-1.02.09-1.92-.56-2.58-.56-.58-1.54-.97-3.18-1.2l-3.14-.45c-.54-.08-1.05.3-1.12.84l-.59,4.15c-.08.54.3,1.05.84,1.12l3.28.47Z"/><path d="M270.27,98.01c-6.41-4.27-7.78-10.88-3.07-17.94,4.45-6.67,11.36-8.05,17.77-3.78,5.5,3.67,7.07,10.54,2.47,17.45-4.67,7-11.31,8.17-17.16,4.27ZM281.72,80.46c-3.15-2.1-6.62-1.1-9.36,3.02-2.8,4.2-2.43,7.98.71,10.08,2.76,1.84,6.15,1.34,9.31-3.39,2.64-4.27,2.25-7.76-.66-9.7Z"/><path d="M308.7,139.07c-3.88-6.66-2.2-13.2,5.13-17.46,6.93-4.03,13.75-2.23,17.62,4.43,3.32,5.71,1.72,12.58-5.46,16.76-7.27,4.23-13.76,2.36-17.29-3.72ZM326.71,128.35c-1.9-3.27-5.46-3.9-9.74-1.41-4.37,2.54-5.7,6.1-3.79,9.36,1.67,2.87,4.94,3.92,9.85,1.05,4.25-2.68,5.43-5.98,3.67-9.01Z"/><path d="M327.15,202.56c4.52-.23,7.65-.38,9.97-.48,1.14-.05,1.31-1.68.2-1.95-2.41-.6-5.71-1.42-10.69-2.66-.43-.11-.76-.49-.78-.93l-.19-3.76c-.02-.44.26-.86.68-1.01,4.77-1.71,7.99-2.86,10.39-3.7,1.08-.38.76-1.99-.38-1.93-2.33.12-5.47.28-9.97.51-.55.03-1.04-.4-1.07-.95l-.19-3.79c-.03-.55.39-1.02.94-1.04l22.93-1.16c.55-.03,1.02.39,1.04.94l.35,6.86c.02.43-.25.83-.65.98-6.75,2.57-10.3,3.88-12.75,4.71-.95.32-.89,1.69.1,1.91,2.55.56,6.25,1.47,13.14,3.31.42.11.73.48.75.91l.34,6.82c.03.55-.39,1.02-.94,1.04l-22.93,1.16c-.55.03-1.02-.39-1.04-.94l-.19-3.8c-.03-.55.41-1.02.96-1.04Z"/><path d="M128.83,302.74c2.35,1.76,3.76,3.12,4.39,4.39.92,1.84.59,4.11-.91,6.12-.89,1.19-2.04,1.92-3.39,2.16-1.2.21-1.96,1.34-1.64,2.52.46,1.68.05,3.4-1.19,5.06-1.48,1.98-3.72,2.96-5.94,2.8-1.87-.16-3.73-1.16-6.61-3.32l-6.93-5.19c-.88-.66-1.05-1.9-.4-2.77l12.58-16.81c.66-.88,1.9-1.05,2.77-.4l7.27,5.44ZM113.88,314.16c-.66.88-.48,2.12.4,2.77l2.04,1.52c2.58,1.93,4.02,1.77,5.05.38,1.04-1.39,1.05-2.7-1.58-4.67l-2.21-1.65c-.88-.66-2.12-.48-2.77.4l-.93,1.24ZM120.04,305.93c-.66.88-.48,2.12.4,2.77l2.09,1.57c1.98,1.48,3.4,1.48,4.39.15.89-1.19.94-2.38-1.46-4.18l-2.04-1.52c-.88-.66-2.12-.48-2.77.4l-.61.82Z"/><path d="M174.43,348.47l-2.66-8.21c-.22-.67-.77-1.17-1.45-1.32h0c-1.07-.24-2.13.43-2.37,1.5l-1.19,5.27c-.24,1.07-1.3,1.74-2.37,1.5l-1.93-.43c-1.07-.24-1.74-1.3-1.5-2.37l4.62-20.48c.24-1.07,1.3-1.74,2.37-1.5l9.24,2.08c3.79.86,5.78,2.46,6.71,4.3.8,1.59.83,3.41.45,5.06-.7,3.1-2.55,4.73-4.96,5.35-1.1.29-1.68,1.5-1.29,2.56l2.12,5.85c.53,1.47-.77,2.95-2.3,2.61l-2.06-.46c-.68-.15-1.23-.66-1.45-1.32ZM173.61,334.97c1.45.33,2.5.31,3.23-.03.81-.36,1.22-1.07,1.42-1.96.23-1,.25-1.9-.35-2.62-.51-.62-1.46-1.09-3.08-1.45l-2.14-.48c-1.07-.24-2.13.43-2.37,1.5l-.49,2.17c-.24,1.07.43,2.13,1.5,2.37l2.27.51Z"/><path d="M238.6,346.86l-1.15-2.04c-.42-.74-1.27-1.14-2.11-.97l-5.86,1.17c-.83.17-1.47.85-1.58,1.69l-.3,2.35c-.11.84-.74,1.52-1.58,1.69l-2.08.41c-1.35.27-2.56-.89-2.34-2.26l3.56-22.11c.13-.82.76-1.47,1.57-1.63l3.87-.77c.82-.16,1.66.21,2.09.92l11.45,19.12c.7,1.17.03,2.69-1.31,2.96l-2.11.42c-.84.17-1.69-.22-2.11-.97ZM233.27,337.06c-.23-.4-.44-.78-.65-1.16-.93-1.66-3.44-1.17-3.68.71-.06.43-.11.87-.17,1.32-.18,1.35,1.02,2.48,2.35,2.21l.83-.17c1.32-.26,2-1.75,1.33-2.93Z"/><path d="M270.13,311.17c-.64-.89-.44-2.12.44-2.77l5.49-3.98c3.61-2.61,5.27-3.51,7.41-3.8,3.41-.47,7.47,1.88,10.47,6.02,2.3,3.18,3.39,6.66,2.96,9.81-.44,3.37-2.49,5.47-6.53,8.4l-5.18,3.75c-.89.64-2.12.44-2.77-.44l-12.31-16.99ZM287.6,320.72c2.55-1.84,3.34-2.86,3.5-4.63.13-1.45-.6-3.54-2.28-5.86-1.66-2.29-3.7-3.78-5.34-3.81-1.16-.03-2.4.48-3.81,1.49l-1.4,1.02c-.89.64-1.08,1.88-.44,2.77l6.49,8.95c.64.89,1.88,1.08,2.77.44l.51-.37Z"/><path class="uuid-bd639d50-1b99-413a-9f5c-7bfc2d6ae7e4" d="M223.17,158.79c11.19,3.57,18.97,6.93,23.08,10.85,5.88,5.65,8.14,14.49,5.11,23.97-1.89,5.91-5.26,10.3-10.56,12.96-3.88,1.95-5.02,6.84-2.47,10.36,4.07,5.6,4.79,12.51,2.23,20.53-2.9,9.09-9.73,15.46-17.74,17.84-7.05,2.1-15.24.94-28.93-3.44l-38.97-12.44c-3.64-1.16-5.64-5.05-4.48-8.68l25.48-79.79c1.16-3.64,5.05-5.64,8.68-4.48l38.58,12.32ZM196.93,181.9c-1.16,3.64.85,7.52,4.48,8.68l8.56,2.73c1.84.59,3.33.92,5.04,1.03,3.41.22,5.4-1.47,6.41-4.63.93-2.9.63-5.6-2.15-7.36-1.32-.86-2.86-1.49-5.1-2.21l-8.56-2.73c-3.64-1.16-7.52.85-8.68,4.48h0ZM185.49,217.71c-1.16,3.64.85,7.52,4.48,8.68l8.29,2.65c2.63.84,5.22,1.38,6.93,1.49,4.02.12,5.87-2.04,6.88-5.2,1.05-3.29.75-6-2.46-8.19-1.54-1.07-4-2-6.64-2.84l-8.29-2.65c-3.64-1.16-7.52.85-8.68,4.48l-.5,1.58Z"/><path class="uuid-2ce18c21-6b1a-432c-b23c-fd6639372d35" d="M279.04,375.74l2.86-1.3,1.35,2.98-2.86,1.3-1.35-2.98Z"/><path class="uuid-2ce18c21-6b1a-432c-b23c-fd6639372d35" d="M268.26,386.58c.9,1.51,2.18,2.34,3.83,1.71,2.16-.82,2.72-3.28,1.4-6.76-1.45-3.82-3.6-5.33-5.74-4.52-1.5.57-2.1,1.93-1.64,4.07l-1.79.28c-.41-2.67.3-4.85,2.89-5.83,3.13-1.19,6.08.77,7.8,5.32,1.69,4.46.72,7.78-2.47,8.99-2.53.96-4.52-.31-5.73-2.3l1.44-.95Z"/><path class="uuid-2ce18c21-6b1a-432c-b23c-fd6639372d35" d="M253.55,380.41l2.38,3.44,4.77-1.49v-4.19s1.71-.53,1.71-.53l-.12,15.43-1.79.56-8.67-12.69,1.71-.53ZM256.73,385.17c2.61,3.9,3.38,5.1,4.14,6.34-.05-1.49-.09-2.89-.08-7.61l-4.05,1.26Z"/><path class="uuid-2ce18c21-6b1a-432c-b23c-fd6639372d35" d="M250.5,381.25l3.61,14.25-1.59.41-3.22-12.72-5.85,1.48-.39-1.54,7.45-1.89Z"/><path class="uuid-2ce18c21-6b1a-432c-b23c-fd6639372d35" d="M241.27,383.51l2.88,14.41-1.61.32-2.57-12.86-5.92,1.18-.31-1.55,7.53-1.51Z"/><path class="uuid-2ce18c21-6b1a-432c-b23c-fd6639372d35" d="M225.54,386.22l1.64,13.01,3.53-.44.2,1.57-8.7,1.1-.2-1.57,3.53-.44-1.64-13.01,1.63-.21Z"/><path class="uuid-2ce18c21-6b1a-432c-b23c-fd6639372d35" d="M214.41,387.05c3.59-.25,5.64,2.75,5.97,7.32.33,4.63-1.46,7.68-4.84,7.92-3.7.26-5.52-3.07-5.82-7.29-.34-4.8,1.56-7.73,4.7-7.96ZM215.46,400.69c2.33-.17,3.52-2.48,3.26-6.14-.27-3.86-1.81-6.09-4.2-5.92-2.22.16-3.36,2.41-3.08,6.29.28,3.91,1.72,5.93,4.02,5.77Z"/><path class="uuid-2ce18c21-6b1a-432c-b23c-fd6639372d35" d="M207.11,402.47l-3.31.02c-1.83,0-3.1-.3-3.94-.81-1.55-.91-2.58-3.23-2.59-6.34-.01-2.64.64-4.83,1.9-6.03,1.06-1.03,2.37-1.51,4.78-1.52l3.08-.02.08,14.7ZM203.94,389.37c-.96,0-2.02.16-2.81.56-1.39.74-2.15,2.74-2.14,5.38.01,2,.42,3.79,1.59,4.76.63.54,1.75.84,3.27.84h1.6s-.06-11.54-.06-11.54h-1.46Z"/><path class="uuid-2ce18c21-6b1a-432c-b23c-fd6639372d35" d="M187.63,387.32l1.03,4.06,4.99.27,1.46-3.92,1.79.1-5.5,14.42-1.87-.1-3.69-14.92,1.79.1ZM188.95,392.9c1.09,4.56,1.39,5.96,1.66,7.39.47-1.41.92-2.75,2.58-7.16l-4.24-.23Z"/><path class="uuid-2ce18c21-6b1a-432c-b23c-fd6639372d35" d="M182.96,386.87l-.63,5.98,3.44,9.09-1.86-.2c-1.85-5.07-2.19-6.01-2.6-7.33-.59.99-1.22,2.03-4.13,6.62l-1.8-.19,5.34-8.17.63-5.99,1.62.17Z"/><path class="uuid-2ce18c21-6b1a-432c-b23c-fd6639372d35" d="M162.25,394.29c-.01,1.76.64,3.13,2.38,3.45,2.27.42,4.03-1.39,4.71-5.05.75-4.01-.3-6.43-2.56-6.85-1.58-.29-2.79.56-3.52,2.63l-1.67-.69c1.04-2.5,2.78-3.99,5.5-3.48,3.3.62,4.79,3.82,3.9,8.61-.88,4.69-3.43,7.03-6.79,6.4-2.66-.5-3.71-2.62-3.69-4.95l1.73-.06Z"/><path class="uuid-2ce18c21-6b1a-432c-b23c-fd6639372d35" d="M160.44,383.26l-3.61,14.24-1.59-.4,1.55-6.09-5.91-1.5-1.55,6.09-1.57-.4,3.61-14.24,1.57.4-1.68,6.62,5.91,1.5,1.68-6.62,1.59.41Z"/><path class="uuid-2ce18c21-6b1a-432c-b23c-fd6639372d35" d="M141.25,377.78l-.03,4.19,4.76,1.53,2.41-3.42,1.7.55-8.97,12.55-1.78-.57.21-15.37,1.7.55ZM141.12,383.5c-.11,4.69-.17,6.11-.27,7.57.82-1.25,1.59-2.42,4.31-6.27l-4.04-1.3Z"/><path class="uuid-2ce18c21-6b1a-432c-b23c-fd6639372d35" d="M130.87,373.86c.97,8.19,1.22,10.07,1.54,13.42.53-1.4,1.1-2.86,4.34-11.12l1.53.6-5.37,13.69-1.8-.71c-1.08-9.23-1.32-11.05-1.54-13.35-.61,1.73-1.23,3.36-4.25,11.08l-1.51-.59,5.37-13.69,1.71.67Z"/><path class="uuid-2ce18c21-6b1a-432c-b23c-fd6639372d35" d="M116.48,382.12c2.24,1.05,4.44-.4,6.09-3.9,1.58-3.35,1.17-6.05-.91-7.03-1.21-.57-2.58-.2-3.62.9-.49.51-.82,1.06-1.36,2.17l3.41,1.6-.67,1.43-4.84-2.28,3.3-7.03,1.34.63-.72,1.53c1.36-.93,2.61-.96,4.08-.27,2.86,1.35,3.5,4.8,1.53,8.98-2,4.26-5.07,6.24-8.37,4.69-2.34-1.1-3.03-2.94-2.35-5.73l1.64.33c-.53,1.87-.14,3.23,1.45,3.97Z"/><path class="uuid-2ce18c21-6b1a-432c-b23c-fd6639372d35" d="M115.58,366.78l-7.05,12.9-7-3.82.76-1.39,5.56,3.03,2.26-4.13-5.06-2.76.76-1.39,5.06,2.77,2.52-4.61-5.9-3.22.76-1.39,7.35,4.01Z"/><path class="uuid-2ce18c21-6b1a-432c-b23c-fd6639372d35" d="M100.91,358.24l-7.12,11.02,2.99,1.93-.86,1.33-7.36-4.76.86-1.33,2.99,1.93,7.12-11.02,1.38.89Z"/><path class="uuid-2ce18c21-6b1a-432c-b23c-fd6639372d35" d="M91.87,351.72c2.91,2.12,2.55,5.74-.14,9.45-2.73,3.76-6.06,4.94-8.81,2.94-3-2.18-2.25-5.91.24-9.33,2.83-3.89,6.17-4.91,8.71-3.06ZM83.9,362.83c1.89,1.37,4.29.36,6.45-2.6,2.28-3.13,2.54-5.83.6-7.24-1.8-1.31-4.12-.32-6.41,2.83-2.3,3.17-2.51,5.65-.64,7Z"/><path class="uuid-2ce18c21-6b1a-432c-b23c-fd6639372d35" d="M77.91,340.95c-5.01,5.96-6.62,7.87-8.24,9.69,1.66-1.19,3.69-2.58,11-7.37l1.05.89c-3.05,6.96-3.96,9.13-5.34,12.13,1.22-1.51,2.82-3.42,8.16-9.76l1.21,1.02-9.47,11.25-1.9-1.6c3.25-7.61,4.12-9.71,4.91-11.3-1.38,1.02-3.26,2.32-10.22,6.83l-1.83-1.54,9.47-11.25,1.19,1Z"/><path class="uuid-2ce18c21-6b1a-432c-b23c-fd6639372d35" d="M71.45,334.5c2.58,2.51,1.71,6.04-1.49,9.33-3.24,3.33-6.7,4.03-9.14,1.66-2.66-2.58-1.38-6.17,1.56-9.2,3.35-3.45,6.81-3.99,9.06-1.79ZM61.97,344.37c1.67,1.63,4.2.97,6.75-1.66,2.7-2.78,3.34-5.41,1.62-7.08-1.6-1.55-4.03-.9-6.75,1.89-2.73,2.81-3.28,5.23-1.63,6.84Z"/><path class="uuid-2ce18c21-6b1a-432c-b23c-fd6639372d35" d="M60.86,323.81l-2.3,6.73,1.71,1.88,4.61-4.18,1.11,1.22-10.89,9.88-2.63-2.9c-.85-.94-1.63-2.01-1.82-2.87-.24-1.07.03-2.45,1.4-3.69,1.7-1.54,3.41-1.6,5.21-.37l2.38-7.05,1.23,1.36ZM57.52,331.71c-.67-.74-1.4-1.26-2.05-1.4-.73-.15-1.51.13-2.24.79-.66.6-.98,1.37-.89,2.21.07.69.68,1.46,1.25,2.09l1.53,1.68,3.99-3.62-1.6-1.76Z"/><path class="uuid-2ce18c21-6b1a-432c-b23c-fd6639372d35" d="M53.67,315.07l-2.71,6.58,1.59,1.98,4.86-3.9,1.03,1.28-11.46,9.2-2.45-3.05c-.79-.99-1.5-2.11-1.64-2.98-.18-1.09.18-2.44,1.62-3.6,1.79-1.43,3.5-1.39,5.22-.05l2.8-6.89,1.15,1.43ZM49.85,322.75c-.63-.78-1.32-1.34-1.97-1.52-.72-.2-1.52.04-2.28.65-.7.56-1.06,1.3-1.02,2.15.03.7.59,1.5,1.12,2.17l1.42,1.77,4.21-3.38-1.49-1.85Z"/><path class="uuid-2ce18c21-6b1a-432c-b23c-fd6639372d35" d="M48.91,308.06c2.07,2.95.55,6.25-3.2,8.88-3.8,2.67-7.33,2.71-9.28-.07-2.13-3.03-.21-6.31,3.24-8.74,3.93-2.76,7.42-2.65,9.23-.08ZM37.77,315.99c1.34,1.91,3.94,1.73,6.94-.37,3.17-2.23,4.29-4.69,2.91-6.65-1.28-1.82-3.79-1.63-6.98.6-3.2,2.25-4.2,4.53-2.87,6.42Z"/><path class="uuid-2ce18c21-6b1a-432c-b23c-fd6639372d35" d="M40,294.71c-5.79,5.48-7.32,6.86-9.12,8.37,2.08-.83,4.16-1.61,11.7-4.04l.99,1.66-10.96,10.32-.92-1.54c5.97-5.64,7.24-6.81,9.14-8.46-2.44.95-3.96,1.45-11.75,4.1l-.86-1.43c5.15-4.86,7.11-6.73,9.14-8.46-2.07.88-3.71,1.47-11.68,4.2l-.9-1.5,14.23-4.85.97,1.63Z"/><path class="uuid-2ce18c21-6b1a-432c-b23c-fd6639372d35" d="M30.16,285.6l1.41,2.81-2.92,1.47-1.41-2.81,2.92-1.47Z"/><path class="uuid-2ce18c21-6b1a-432c-b23c-fd6639372d35" d="M27.53,268.8c-7.19,2.98-9.5,3.94-11.77,4.82,2.02-.3,4.46-.59,13.15-1.49l.53,1.27c-5.91,4.77-7.71,6.29-10.32,8.32,1.77-.78,4.08-1.74,11.73-4.91l.61,1.46-13.57,5.63-.95-2.29c6.38-5.26,8.12-6.73,9.55-7.77-1.69.27-3.96.56-12.21,1.37l-.92-2.21,13.57-5.63.6,1.44Z"/><path class="uuid-2ce18c21-6b1a-432c-b23c-fd6639372d35" d="M23.52,257.33l-3.39,2.46,1.59,4.74,4.19-.09.57,1.7-15.43.22-.6-1.78,12.5-8.95.57,1.7ZM18.83,260.62c-3.84,2.7-5.02,3.49-6.25,4.28,1.49-.08,2.89-.16,7.6-.25l-1.35-4.02Z"/><path class="uuid-2ce18c21-6b1a-432c-b23c-fd6639372d35" d="M20.51,246.65l-6.13,5.86,3.47,1.43,4.32-1.17.43,1.59-14.19,3.86-.43-1.59,7.54-2.05-9.06-3.56-.51-1.89,6.7,2.67,7.36-6.99.5,1.85Z"/><path class="uuid-2ce18c21-6b1a-432c-b23c-fd6639372d35" d="M19.37,241.71l.38,1.62-14.31,3.34-.38-1.62,14.31-3.34Z"/><path class="uuid-2ce18c21-6b1a-432c-b23c-fd6639372d35" d="M17.31,231.08c-6.47,5.12-7.94,6.31-10.63,8.34,1.47-.29,3.01-.56,11.74-2.13l.29,1.62-14.47,2.6-.34-1.91c7.3-5.75,8.72-6.92,10.57-8.31-1.79.39-3.51.71-11.67,2.18l-.29-1.6,14.47-2.6.32,1.8Z"/><path class="uuid-2ce18c21-6b1a-432c-b23c-fd6639372d35" d="M2.75,223.16c.28,2.46,2.66,3.58,6.51,3.15,3.68-.41,5.77-2.17,5.51-4.45-.15-1.32-1.18-2.3-2.66-2.61-.69-.15-1.34-.14-2.56-.03l.42,3.74-1.57.18-.6-5.32,7.72-.86.16,1.47-1.68.19c1.5.67,2.18,1.72,2.36,3.34.35,3.14-2.26,5.49-6.85,6-4.68.52-7.97-1.06-8.38-4.68-.29-2.56.92-4.12,3.65-4.99l.57,1.57c-1.87.52-2.82,1.57-2.62,3.31Z"/><path class="uuid-2ce18c21-6b1a-432c-b23c-fd6639372d35" d="M15.02,207.6l-6.01.18-8.54,4.63-.06-1.87c4.78-2.52,5.66-2.98,6.91-3.56-1.05-.45-2.17-.93-7.11-3.2l-.05-1.81,8.81,4.19,6.01-.18.05,1.62Z"/><path class="uuid-2ce18c21-6b1a-432c-b23c-fd6639372d35" d="M15.28,195.97c-.1,3.6-3.29,5.34-7.87,5.22-4.64-.13-7.5-2.21-7.41-5.6.1-3.71,3.6-5.19,7.83-5.07,4.81.13,7.54,2.31,7.45,5.46ZM1.6,195.67c-.06,2.33,2.12,3.75,5.79,3.85,3.87.11,6.24-1.2,6.31-3.6.06-2.23-2.07-3.58-5.96-3.69-3.91-.11-6.07,1.12-6.14,3.43Z"/><path class="uuid-2ce18c21-6b1a-432c-b23c-fd6639372d35" d="M9.78,178.81c2.43.23,3.72.51,4.73,1.28,1.13.86,1.64,2.33,1.48,4.05-.16,1.68-.98,3.09-2.28,3.63-1.33.57-2.58.51-4.82.3l-8.25-.77.15-1.64,8.89.83c1.04.1,2.27.13,3.09-.19,1-.39,1.54-1.21,1.64-2.36.11-1.14-.22-2.13-1.15-2.7-.77-.49-1.97-.67-3.02-.76l-8.89-.83.15-1.62,8.27.77Z"/><path class="uuid-2ce18c21-6b1a-432c-b23c-fd6639372d35" d="M17.67,169.22l-6.68,2.43-.39,2.51,6.15.96-.25,1.62-14.53-2.27.61-3.87c.2-1.25.54-2.53,1.09-3.22.68-.86,1.92-1.51,3.75-1.22,2.26.35,3.39,1.65,3.55,3.82l6.98-2.57-.28,1.81ZM9.42,171.58c.15-.99.1-1.88-.2-2.48-.34-.66-1.05-1.09-2.02-1.24-.88-.14-1.68.1-2.28.7-.5.49-.71,1.45-.84,2.29l-.35,2.24,5.33.83.37-2.35Z"/><path class="uuid-2ce18c21-6b1a-432c-b23c-fd6639372d35" d="M15.12,160.26c2.15-.15,3.29-1.12,3.65-2.62.37-1.54-.25-2.8-1.79-3.17-1.24-.3-2.11.22-3.19,1.72l-.76,1.02c-1.37,1.86-2.64,2.71-4.74,2.2-2.35-.56-3.38-2.7-2.82-5,.61-2.55,2.27-3.42,4.29-3.51l.28,1.67c-1.83.14-2.76,1.05-3.05,2.29-.35,1.46.32,2.58,1.6,2.89,1.23.29,2.02-.2,3.07-1.66l.8-1.09c1.47-2.04,2.81-2.71,4.79-2.23,2.47.59,3.7,2.69,3.07,5.32-.56,2.33-2.4,3.83-4.95,3.93l-.24-1.75Z"/><path class="uuid-2ce18c21-6b1a-432c-b23c-fd6639372d35" d="M21.65,151.55l-14.07-4.27,1.16-3.83c.59-1.95,1.18-2.88,1.72-3.37.84-.75,2.23-1.11,3.82-.62s2.65,1.52,2.93,2.76c.2.91.11,2.08-.43,3.85l-.64,2.09,5.98,1.82-.48,1.57ZM15.3,145.71c.27-.9.51-1.98.43-2.63-.1-.95-.75-1.62-1.92-1.98-.78-.23-1.58-.15-2.1.17-.71.46-1.13,1.42-1.51,2.7l-.67,2.19,5.16,1.57.61-2.01Z"/><path class="uuid-2ce18c21-6b1a-432c-b23c-fd6639372d35" d="M27.35,134.36l-4.18-.19-1.71,4.7,3.33,2.54-.61,1.68-12.21-9.44.64-1.76,15.35.79-.61,1.68ZM21.63,134.01c-4.68-.28-6.1-.4-7.55-.55,1.22.86,2.36,1.68,6.1,4.54l1.45-3.99Z"/><path class="uuid-2ce18c21-6b1a-432c-b23c-fd6639372d35" d="M21.87,120.47c-1.71-.4-3.19-.06-3.89,1.57-.91,2.12.46,4.23,3.89,5.71,3.75,1.61,6.34,1.12,7.24-.98.63-1.47.07-2.85-1.79-4.01l1.04-1.48c2.21,1.56,3.28,3.59,2.19,6.13-1.33,3.08-4.78,3.83-9.25,1.91-4.38-1.89-6.1-4.89-4.75-8.03,1.07-2.49,3.37-3.04,5.64-2.51l-.32,1.7Z"/><path class="uuid-2ce18c21-6b1a-432c-b23c-fd6639372d35" d="M33.03,121.17l-13.13-6.59,3.57-7.13,1.41.71-2.84,5.66,4.2,2.11,2.58-5.15,1.41.71-2.58,5.15,4.69,2.35,3.01-6.01,1.41.71-3.75,7.48Z"/><path class="uuid-2ce18c21-6b1a-432c-b23c-fd6639372d35" d="M41.22,105.92l-5.16-3.1-9.69-.73.97-1.61c5.38.47,6.37.55,7.74.74-.65-.95-1.32-1.96-4.25-6.54l.93-1.55,5.15,8.29,5.16,3.1-.84,1.39Z"/><path class="uuid-2ce18c21-6b1a-432c-b23c-fd6639372d35" d="M47.72,96.29c-2.03,2.98-5.66,2.72-9.44.14-3.84-2.62-5.12-5.91-3.21-8.71,2.09-3.06,5.83-2.42,9.33-.04,3.97,2.71,5.09,6.02,3.32,8.62ZM36.37,88.65c-1.31,1.93-.24,4.3,2.79,6.37,3.2,2.18,5.9,2.36,7.25.38,1.25-1.84.19-4.13-3.02-6.32-3.23-2.21-5.72-2.33-7.02-.43Z"/><path class="uuid-2ce18c21-6b1a-432c-b23c-fd6639372d35" d="M52.31,78.91c1.92,1.5,2.85,2.44,3.3,3.63.49,1.33.13,2.85-.93,4.21-1.04,1.33-2.49,2.07-3.88,1.83-1.42-.24-2.45-.96-4.22-2.34l-6.54-5.09,1.01-1.3,7.04,5.49c.82.64,1.84,1.33,2.71,1.5,1.05.21,1.95-.2,2.65-1.1.7-.9.96-1.91.49-2.89-.38-.83-1.3-1.62-2.14-2.27l-7.04-5.49,1-1.28,6.55,5.11Z"/><path class="uuid-2ce18c21-6b1a-432c-b23c-fd6639372d35" d="M64.13,75.05l-6.94-1.55-1.68,1.9,4.67,4.12-1.09,1.23-11.02-9.74,2.59-2.93c.84-.95,1.82-1.84,2.66-2.13,1.04-.36,2.43-.24,3.82.99,1.72,1.52,1.97,3.21.94,5.13l7.27,1.59-1.21,1.37ZM55.91,72.59c.66-.75,1.1-1.53,1.16-2.2.07-.74-.3-1.49-1.03-2.14-.67-.59-1.47-.82-2.3-.64-.68.15-1.38.84-1.94,1.48l-1.5,1.7,4.04,3.57,1.57-1.78Z"/><path class="uuid-2ce18c21-6b1a-432c-b23c-fd6639372d35" d="M64.01,68.98c1.92.99,3.39.75,4.47-.34,1.11-1.12,1.24-2.52.12-3.64-.9-.9-1.92-.91-3.62-.2l-1.18.47c-2.13.88-3.66.94-5.2-.59-1.71-1.7-1.48-4.06.19-5.74,1.85-1.86,3.72-1.73,5.49-.77l-.63,1.58c-1.64-.83-2.9-.54-3.8.36-1.06,1.06-1.07,2.37-.14,3.3.9.89,1.83.88,3.49.18l1.25-.52c2.32-.98,3.81-.85,5.26.59,1.8,1.79,1.77,4.22-.14,6.14-1.69,1.7-4.04,2.03-6.27.78l.7-1.62Z"/><path class="uuid-2ce18c21-6b1a-432c-b23c-fd6639372d35" d="M82.9,57.2l-3.55-2.21-3.79,3.26,1.66,3.84-1.36,1.17-6.03-14.21,1.42-1.22,13,8.2-1.36,1.17ZM78.08,54.1c-3.94-2.54-5.12-3.33-6.32-4.18.64,1.35,1.24,2.62,3.1,6.95l3.22-2.77Z"/><path class="uuid-2ce18c21-6b1a-432c-b23c-fd6639372d35" d="M80.97,41.72c-1.97,1.5-1.71,4.12.63,7.2,2.24,2.95,4.82,3.84,6.65,2.46,1.06-.81,1.37-2.19.88-3.62-.22-.67-.56-1.22-1.29-2.21l-3,2.28-.96-1.26,4.26-3.24,4.7,6.19-1.18.89-1.02-1.34c.19,1.63-.36,2.76-1.66,3.74-2.52,1.91-5.87.88-8.67-2.81-2.85-3.75-3.18-7.39-.28-9.59,2.06-1.56,4.01-1.32,6.16.58l-1.05,1.3c-1.41-1.34-2.8-1.62-4.19-.56Z"/><path class="uuid-2ce18c21-6b1a-432c-b23c-fd6639372d35" d="M101.42,43.74l-3.25-2.64-4.16,2.77,1.17,4.02-1.49.99-4.23-14.84,1.56-1.04,11.88,9.74-1.49.99ZM97.02,40.07c-3.6-3-4.67-3.94-5.75-4.92.47,1.42.9,2.75,2.22,7.28l3.54-2.35Z"/><path class="uuid-2ce18c21-6b1a-432c-b23c-fd6639372d35" d="M105.57,41.22l-1.42.86-7.62-12.57,1.42-.86,7.62,12.57Z"/><path class="uuid-2ce18c21-6b1a-432c-b23c-fd6639372d35" d="M115.02,35.88c-6.89-4.52-8.49-5.54-11.26-7.45.74,1.31,1.48,2.68,5.72,10.46l-1.44.79-7.03-12.91,1.7-.93c7.76,5.11,9.32,6.09,11.21,7.4-.93-1.58-1.79-3.1-5.75-10.38l1.43-.78,7.03,12.9-1.61.88Z"/><path class="uuid-2ce18c21-6b1a-432c-b23c-fd6639372d35" d="M123,27.14l-2.86,1.31-1.37-2.97,2.86-1.31,1.37,2.97Z"/><path class="uuid-2ce18c21-6b1a-432c-b23c-fd6639372d35" d="M133.75,16.23c-.91-1.5-2.19-2.32-3.84-1.69-2.16.83-2.7,3.29-1.36,6.77,1.47,3.81,3.63,5.32,5.77,4.5,1.5-.58,2.09-1.94,1.62-4.08l1.79-.29c.42,2.67-.27,4.86-2.86,5.85-3.13,1.2-6.08-.74-7.83-5.28-1.71-4.45-.76-7.78,2.42-9.01,2.53-.97,4.53.29,5.74,2.28l-1.44.95Z"/><path class="uuid-2ce18c21-6b1a-432c-b23c-fd6639372d35" d="M148.48,22.33l-2.4-3.43-4.76,1.51.02,4.19-1.71.54.04-15.43,1.79-.57,8.73,12.64-1.71.54ZM145.27,17.59c-2.63-3.88-3.4-5.08-4.17-6.32.06,1.49.11,2.89.12,7.6l4.05-1.29Z"/><path class="uuid-2ce18c21-6b1a-432c-b23c-fd6639372d35" d="M151.52,21.47l-3.68-14.22,1.59-.41,3.28,12.7,5.84-1.51.4,1.53-7.44,1.92Z"/><path class="uuid-2ce18c21-6b1a-432c-b23c-fd6639372d35" d="M160.73,19.15l-2.88-14.41,1.61-.32,2.57,12.86,5.92-1.18.31,1.55-7.53,1.51Z"/><path class="uuid-2ce18c21-6b1a-432c-b23c-fd6639372d35" d="M176.46,16.37l-1.71-13.01-3.53.46-.21-1.57,8.69-1.14.21,1.57-3.53.46,1.71,13.01-1.63.21Z"/><path class="uuid-2ce18c21-6b1a-432c-b23c-fd6639372d35" d="M187.59,15.49c-3.59.27-5.65-2.72-6-7.29-.35-4.63,1.42-7.69,4.8-7.94,3.69-.28,5.53,3.04,5.85,7.26.36,4.79-1.52,7.73-4.65,7.97ZM186.47,1.86c-2.32.18-3.5,2.5-3.23,6.15.29,3.86,1.84,6.08,4.23,5.9,2.22-.17,3.34-2.43,3.05-6.31-.3-3.9-1.74-5.92-4.05-5.75Z"/><path class="uuid-2ce18c21-6b1a-432c-b23c-fd6639372d35" d="M194.82.04l3.31-.04c1.83-.02,3.1.28,3.94.79,1.55.9,2.59,3.22,2.63,6.32.03,2.64-.62,4.84-1.87,6.04-1.05,1.03-2.36,1.52-4.77,1.55l-3.08.03-.15-14.69ZM198.06,13.12c.96,0,2.02-.17,2.8-.57,1.39-.74,2.14-2.75,2.11-5.39-.02-2-.44-3.78-1.61-4.75-.63-.54-1.76-.83-3.28-.82l-1.6.02.12,11.53,1.46-.02Z"/><path class="uuid-2ce18c21-6b1a-432c-b23c-fd6639372d35" d="M214.39,15.08l-1.05-4.06-4.99-.25-1.45,3.93-1.79-.09L210.55.17l1.87.09,3.76,14.91-1.79-.09ZM213.04,9.51c-1.11-4.56-1.41-5.95-1.7-7.38-.47,1.42-.91,2.75-2.55,7.17l4.24.21Z"/><path class="uuid-2ce18c21-6b1a-432c-b23c-fd6639372d35" d="M219.03,15.5l.6-5.99-3.49-9.07,1.86.19c1.88,5.06,2.23,6,2.64,7.31.58-.99,1.21-2.03,4.09-6.64l1.8.18-5.29,8.2-.6,5.99-1.62-.16Z"/><path class="uuid-2ce18c21-6b1a-432c-b23c-fd6639372d35" d="M239.75,7.99c0-1.76-.66-3.12-2.4-3.44-2.27-.41-4.02,1.41-4.69,5.07-.73,4.01.33,6.43,2.59,6.84,1.58.29,2.79-.57,3.51-2.64l1.67.68c-1.03,2.5-2.76,4-5.48,3.51-3.3-.6-4.81-3.79-3.94-8.59.85-4.69,3.4-7.04,6.76-6.43,2.66.48,3.72,2.6,3.72,4.93l-1.73.07Z"/><path class="uuid-2ce18c21-6b1a-432c-b23c-fd6639372d35" d="M241.58,19l3.54-14.26,1.6.4-1.52,6.1,5.92,1.47,1.52-6.1,1.58.39-3.54,14.26-1.58-.39,1.65-6.62-5.92-1.47-1.65,6.63-1.6-.4Z"/><path class="uuid-2ce18c21-6b1a-432c-b23c-fd6639372d35" d="M260.84,24.39v-4.19s-4.76-1.5-4.76-1.5l-2.39,3.44-1.71-.54,8.91-12.6,1.79.56-.13,15.38-1.71-.54ZM260.94,18.66c.08-4.69.14-6.11.23-7.57-.81,1.25-1.57,2.43-4.28,6.29l4.05,1.28Z"/><path class="uuid-2ce18c21-6b1a-432c-b23c-fd6639372d35" d="M271.2,28.25c-1.02-8.18-1.27-10.07-1.61-13.41-.52,1.41-1.08,2.86-4.28,11.14l-1.53-.59,5.29-13.71,1.81.7c1.12,9.23,1.38,11.05,1.61,13.34.6-1.73,1.21-3.37,4.2-11.1l1.51.59-5.29,13.71-1.71-.66Z"/><path class="uuid-2ce18c21-6b1a-432c-b23c-fd6639372d35" d="M285.55,19.92c-2.25-1.04-4.44.42-6.07,3.93-1.56,3.36-1.13,6.06.94,7.02,1.21.56,2.58.19,3.61-.92.49-.51.82-1.07,1.35-2.17l-3.42-1.58.67-1.44,4.85,2.25-3.27,7.04-1.34-.62.71-1.53c-1.35.93-2.61.97-4.08.29-2.87-1.33-3.52-4.78-1.58-8.97,1.98-4.27,5.04-6.27,8.34-4.73,2.34,1.09,3.05,2.93,2.38,5.71l-1.64-.32c.52-1.87.12-3.23-1.47-3.96Z"/><path class="uuid-2ce18c21-6b1a-432c-b23c-fd6639372d35" d="M286.5,35.24l6.97-12.93,7.02,3.78-.75,1.39-5.57-3-2.23,4.14,5.07,2.74-.75,1.39-5.07-2.74-2.49,4.62,5.92,3.19-.75,1.39-7.36-3.97Z"/><path class="uuid-2ce18c21-6b1a-432c-b23c-fd6639372d35" d="M301.22,43.7l7.07-11.05-3-1.92.85-1.33,7.39,4.72-.85,1.33-3-1.92-7.07,11.05-1.39-.89Z"/><path class="uuid-2ce18c21-6b1a-432c-b23c-fd6639372d35" d="M310.32,50.2c-2.92-2.1-2.58-5.72.1-9.44,2.71-3.77,6.03-4.97,8.79-2.99,3.01,2.16,2.28,5.89-.19,9.32-2.81,3.91-6.14,4.94-8.7,3.11ZM318.23,39.04c-1.89-1.36-4.29-.34-6.43,2.63-2.26,3.14-2.51,5.84-.56,7.24,1.81,1.3,4.12.29,6.39-2.87,2.28-3.18,2.48-5.66.6-7Z"/><path class="uuid-2ce18c21-6b1a-432c-b23c-fd6639372d35" d="M324.33,60.89c4.99-5.98,6.59-7.9,8.19-9.73-1.65,1.2-3.68,2.59-10.96,7.42l-1.06-.88c3.02-6.97,3.92-9.15,5.28-12.16-1.21,1.51-2.81,3.43-8.11,9.8l-1.22-1.01,9.41-11.29,1.9,1.59c-3.21,7.62-4.07,9.73-4.86,11.32,1.37-1.03,3.25-2.33,10.18-6.88l1.84,1.53-9.41,11.29-1.2-1Z"/><path class="uuid-2ce18c21-6b1a-432c-b23c-fd6639372d35" d="M330.83,67.31c-2.6-2.5-1.74-6.03,1.44-9.34,3.22-3.35,6.68-4.06,9.13-1.71,2.67,2.57,1.42,6.16-1.51,9.21-3.33,3.47-6.78,4.02-9.05,1.84ZM340.25,57.39c-1.68-1.62-4.2-.95-6.74,1.69-2.68,2.79-3.31,5.43-1.58,7.09,1.61,1.54,4.04.88,6.74-1.93,2.71-2.82,3.26-5.25,1.59-6.85Z"/><path class="uuid-2ce18c21-6b1a-432c-b23c-fd6639372d35" d="M341.46,77.94l2.27-6.74-1.72-1.87-4.59,4.21-1.11-1.21,10.83-9.93,2.65,2.88c.86.94,1.64,2,1.84,2.87.25,1.07-.02,2.44-1.38,3.7-1.69,1.55-3.4,1.62-5.2.39l-2.34,7.06-1.24-1.35ZM344.77,70.02c.68.74,1.4,1.25,2.06,1.38.73.15,1.51-.14,2.23-.8.66-.6.97-1.37.88-2.22-.07-.7-.69-1.46-1.27-2.09l-1.53-1.67-3.97,3.64,1.6,1.75Z"/><path class="uuid-2ce18c21-6b1a-432c-b23c-fd6639372d35" d="M348.67,86.62l2.67-6.59-1.6-1.97-4.84,3.92-1.04-1.28,11.42-9.25,2.46,3.04c.8.99,1.51,2.1,1.66,2.97.18,1.08-.17,2.44-1.61,3.61-1.78,1.44-3.49,1.41-5.22.08l-2.77,6.9-1.15-1.42ZM352.46,78.92c.63.78,1.33,1.34,1.97,1.51.72.19,1.51-.05,2.27-.67.7-.56,1.06-1.31,1.01-2.16-.03-.7-.6-1.5-1.14-2.16l-1.43-1.76-4.19,3.4,1.49,1.84Z"/><path class="uuid-2ce18c21-6b1a-432c-b23c-fd6639372d35" d="M353.48,93.6c-2.09-2.93-.59-6.25,3.15-8.9,3.78-2.69,7.32-2.75,9.28.01,2.15,3.02.25,6.31-3.2,8.76-3.92,2.79-7.41,2.69-9.23.13ZM364.57,85.61c-1.35-1.9-3.95-1.71-6.94.41-3.16,2.24-4.26,4.71-2.87,6.67,1.29,1.81,3.8,1.61,6.98-.64,3.19-2.27,4.17-4.55,2.83-6.43Z"/><path class="uuid-2ce18c21-6b1a-432c-b23c-fd6639372d35" d="M362.47,106.92c5.76-5.51,7.28-6.9,9.07-8.42-2.07.84-4.14,1.64-11.68,4.11l-1-1.66,10.9-10.38.93,1.53c-5.94,5.67-7.19,6.84-9.09,8.5,2.43-.96,3.95-1.47,11.72-4.16l.86,1.42c-5.12,4.88-7.07,6.77-9.09,8.5,2.07-.89,3.7-1.49,11.65-4.27l.91,1.5-14.2,4.93-.98-1.62Z"/><path class="uuid-2ce18c21-6b1a-432c-b23c-fd6639372d35" d="M372.37,116.01l-1.43-2.8,2.91-1.48,1.43,2.8-2.91,1.48Z"/><path class="uuid-2ce18c21-6b1a-432c-b23c-fd6639372d35" d="M375.07,132.75c7.18-3.02,9.48-3.99,11.75-4.88-2.02.31-4.46.61-13.14,1.56l-.53-1.27c5.88-4.8,7.68-6.33,10.28-8.37-1.77.79-4.07,1.76-11.71,4.98l-.61-1.46,13.55-5.7.96,2.28c-6.35,5.3-8.08,6.77-9.51,7.82,1.69-.28,3.96-.58,12.2-1.43l.93,2.21-13.55,5.7-.61-1.44Z"/><path class="uuid-2ce18c21-6b1a-432c-b23c-fd6639372d35" d="M379.14,144.22l3.38-2.47-1.62-4.73-4.19.11-.58-1.69,15.43-.31.61,1.77-12.45,9.01-.58-1.69ZM383.82,140.91c3.82-2.72,5-3.52,6.23-4.31-1.49.09-2.89.17-7.6.29l1.37,4.02Z"/><path class="uuid-2ce18c21-6b1a-432c-b23c-fd6639372d35" d="M382.22,154.91l6.1-5.88-3.48-1.41-4.31,1.2-.44-1.58,14.16-3.93.44,1.58-7.52,2.09,9.08,3.51.52,1.89-6.71-2.63-7.32,7.02-.51-1.85Z"/><path class="uuid-2ce18c21-6b1a-432c-b23c-fd6639372d35" d="M383.36,159.8l-.38-1.62,14.31-3.34.38,1.62-14.31,3.34Z"/><path class="uuid-2ce18c21-6b1a-432c-b23c-fd6639372d35" d="M385.49,170.42c6.44-5.15,7.91-6.35,10.58-8.39-1.47.29-3.01.58-11.73,2.19l-.3-1.62,14.46-2.67.35,1.9c-7.27,5.79-8.69,6.96-10.53,8.36,1.79-.39,3.51-.73,11.66-2.24l.3,1.6-14.46,2.67-.33-1.8Z"/><path class="uuid-2ce18c21-6b1a-432c-b23c-fd6639372d35" d="M400.09,178.28c-.29-2.46-2.68-3.56-6.53-3.11-3.68.43-5.76,2.21-5.49,4.48.16,1.32,1.19,2.29,2.67,2.6.69.15,1.34.14,2.56.02l-.44-3.74,1.57-.18.62,5.31-7.71.9-.17-1.47,1.68-.2c-1.5-.66-2.19-1.71-2.38-3.33-.37-3.14,2.23-5.5,6.82-6.04,4.67-.55,7.98,1.01,8.4,4.63.3,2.56-.9,4.13-3.63,5.01l-.58-1.57c1.87-.53,2.81-1.59,2.61-3.33Z"/><path class="uuid-2ce18c21-6b1a-432c-b23c-fd6639372d35" d="M387.9,193.92l6.01-.21,8.52-4.68.07,1.87c-4.77,2.54-5.64,3.01-6.9,3.6,1.06.44,2.18.92,7.13,3.17l.06,1.81-8.83-4.15-6.01.21-.06-1.62Z"/><path class="uuid-2ce18c21-6b1a-432c-b23c-fd6639372d35" d="M387.7,205.57c.08-3.6,3.27-5.36,7.85-5.26,4.64.1,7.51,2.17,7.44,5.56-.08,3.71-3.57,5.21-7.8,5.12-4.81-.11-7.55-2.27-7.48-5.42ZM401.38,205.79c.05-2.33-2.15-3.74-5.81-3.82-3.87-.09-6.24,1.24-6.29,3.63-.05,2.23,2.09,3.57,5.98,3.65,3.91.09,6.07-1.16,6.12-3.47Z"/><path class="uuid-2ce18c21-6b1a-432c-b23c-fd6639372d35" d="M393.29,222.66c-2.43-.21-3.72-.49-4.74-1.25-1.14-.85-1.66-2.32-1.5-4.04.15-1.68.96-3.09,2.26-3.65,1.33-.57,2.58-.53,4.82-.33l8.25.73-.14,1.64-8.9-.78c-1.04-.09-2.27-.12-3.09.21-1,.39-1.53,1.22-1.63,2.37-.1,1.14.23,2.13,1.16,2.69.77.49,1.97.65,3.03.75l8.9.78-.14,1.62-8.28-.73Z"/><path class="uuid-2ce18c21-6b1a-432c-b23c-fd6639372d35" d="M385.45,232.29l6.67-2.47.38-2.51-6.15-.93.25-1.63,14.53,2.2-.58,3.87c-.19,1.26-.53,2.53-1.08,3.23-.68.87-1.91,1.52-3.75,1.24-2.26-.34-3.4-1.63-3.57-3.8l-6.96,2.61.27-1.81ZM393.69,229.9c-.15.99-.09,1.88.22,2.47.34.66,1.06,1.09,2.02,1.23.89.13,1.68-.1,2.28-.71.5-.49.7-1.45.83-2.29l.34-2.24-5.33-.81-.35,2.35Z"/><path class="uuid-2ce18c21-6b1a-432c-b23c-fd6639372d35" d="M388.04,241.26c-2.15.16-3.28,1.13-3.63,2.63-.36,1.54.26,2.8,1.8,3.16,1.24.29,2.11-.23,3.19-1.73l.75-1.02c1.36-1.86,2.63-2.72,4.73-2.23,2.35.55,3.39,2.68,2.85,4.99-.6,2.55-2.26,3.43-4.27,3.53l-.29-1.67c1.83-.15,2.75-1.06,3.04-2.3.34-1.46-.34-2.58-1.61-2.88-1.24-.29-2.02.21-3.07,1.68l-.79,1.1c-1.46,2.05-2.8,2.72-4.78,2.25-2.47-.58-3.71-2.67-3.1-5.3.55-2.33,2.38-3.85,4.93-3.95l.25,1.75Z"/><path class="uuid-2ce18c21-6b1a-432c-b23c-fd6639372d35" d="M381.56,250l14.08,4.2-1.14,3.83c-.58,1.96-1.17,2.89-1.7,3.38-.83.75-2.22,1.12-3.82.64-1.6-.47-2.66-1.51-2.94-2.74-.21-.91-.12-2.08.41-3.85l.62-2.09-5.98-1.79.47-1.58ZM387.93,255.81c-.27.9-.5,1.98-.42,2.63.11.95.76,1.62,1.93,1.97.78.23,1.59.15,2.1-.18.7-.46,1.12-1.43,1.5-2.7l.65-2.19-5.17-1.54-.6,2.01Z"/><path class="uuid-2ce18c21-6b1a-432c-b23c-fd6639372d35" d="M375.94,267.22l4.18.17,1.68-4.7-3.34-2.52.6-1.68,12.25,9.38-.63,1.76-15.35-.71.6-1.69ZM381.66,267.54c4.68.26,6.1.37,7.55.51-1.22-.86-2.37-1.66-6.12-4.51l-1.43,4Z"/><path class="uuid-2ce18c21-6b1a-432c-b23c-fd6639372d35" d="M381.49,281.08c1.71.39,3.19.04,3.88-1.58.9-2.13-.49-4.23-3.92-5.69-3.75-1.59-6.34-1.09-7.24,1.02-.63,1.47-.06,2.85,1.81,4l-1.04,1.48c-2.21-1.55-3.3-3.57-2.22-6.12,1.31-3.08,4.76-3.86,9.24-1.95,4.39,1.86,6.12,4.86,4.79,8-1.06,2.49-3.35,3.05-5.62,2.54l.31-1.7Z"/><path class="uuid-2ce18c21-6b1a-432c-b23c-fd6639372d35" d="M370.33,280.45l13.17,6.53-3.54,7.14-1.42-.7,2.81-5.67-4.21-2.09-2.56,5.17-1.42-.7,2.56-5.17-4.7-2.33-2.99,6.02-1.42-.7,3.72-7.5Z"/><path class="uuid-2ce18c21-6b1a-432c-b23c-fd6639372d35" d="M362.23,295.7l5.17,3.07,9.7.68-.96,1.61c-5.38-.44-6.38-.52-7.75-.7.65.94,1.33,1.96,4.29,6.52l-.93,1.56-5.19-8.27-5.17-3.08.83-1.4Z"/><path class="uuid-2ce18c21-6b1a-432c-b23c-fd6639372d35" d="M355.77,305.4c2.01-2.99,5.64-2.75,9.44-.19,3.85,2.59,5.15,5.88,3.25,8.69-2.07,3.07-5.82,2.45-9.32.09-3.99-2.69-5.13-5.99-3.37-8.6ZM367.16,312.98c1.3-1.93.21-4.3-2.83-6.35-3.21-2.16-5.91-2.33-7.25-.34-1.25,1.85-.17,4.13,3.06,6.3,3.25,2.19,5.73,2.3,7.02.39Z"/><path class="uuid-2ce18c21-6b1a-432c-b23c-fd6639372d35" d="M351.27,322.79c-1.93-1.49-2.86-2.42-3.31-3.61-.5-1.33-.14-2.84.91-4.21,1.03-1.33,2.48-2.09,3.87-1.85,1.43.23,2.45.94,4.23,2.32l6.56,5.06-1,1.3-7.07-5.45c-.82-.64-1.85-1.32-2.72-1.49-1.05-.21-1.95.21-2.65,1.11-.7.91-.95,1.92-.47,2.89.39.83,1.31,1.61,2.15,2.26l7.07,5.45-.99,1.29-6.58-5.07Z"/><path class="uuid-2ce18c21-6b1a-432c-b23c-fd6639372d35" d="M339.46,326.71l6.94,1.51,1.67-1.91-4.68-4.1,1.08-1.24,11.06,9.67-2.58,2.94c-.84.96-1.81,1.85-2.64,2.14-1.04.36-2.43.25-3.83-.97-1.72-1.51-1.98-3.2-.96-5.13l-7.27-1.55,1.21-1.38ZM347.69,329.13c-.66.75-1.09,1.53-1.15,2.2-.07.74.31,1.48,1.04,2.13.67.59,1.47.82,2.3.63.68-.15,1.37-.84,1.94-1.49l1.49-1.71-4.06-3.55-1.56,1.79Z"/><path class="uuid-2ce18c21-6b1a-432c-b23c-fd6639372d35" d="M339.62,332.79c-1.92-.98-3.39-.74-4.47.36-1.11,1.13-1.23,2.53-.1,3.64.91.89,1.92.9,3.62.18l1.17-.48c2.13-.89,3.66-.96,5.2.56,1.72,1.69,1.51,4.05-.16,5.74-1.84,1.87-3.71,1.75-5.48.8l.62-1.58c1.64.83,2.9.52,3.79-.38,1.05-1.07,1.05-2.38.12-3.3-.91-.89-1.83-.87-3.49-.16l-1.25.53c-2.32.99-3.81.87-5.26-.56-1.81-1.78-1.79-4.21.11-6.14,1.68-1.71,4.03-2.05,6.26-.82l-.69,1.62Z"/><path class="uuid-2ce18c21-6b1a-432c-b23c-fd6639372d35" d="M320.78,344.65l3.57,2.2,3.77-3.28-1.68-3.84,1.35-1.17,6.1,14.18-1.41,1.23-13.04-8.14,1.35-1.17ZM325.62,347.74c3.96,2.52,5.14,3.31,6.34,4.15-.64-1.34-1.25-2.61-3.13-6.93l-3.21,2.79Z"/><path class="uuid-2ce18c21-6b1a-432c-b23c-fd6639372d35" d="M322.83,360.11c1.97-1.51,1.69-4.13-.67-7.2-2.26-2.94-4.85-3.81-6.66-2.42-1.06.81-1.36,2.2-.86,3.63.22.67.57,1.22,1.3,2.2l2.99-2.29.96,1.25-4.24,3.26-4.73-6.16,1.17-.9,1.03,1.34c-.2-1.63.35-2.76,1.64-3.75,2.51-1.93,5.87-.91,8.68,2.76,2.87,3.73,3.22,7.37.33,9.59-2.05,1.57-4.01,1.35-6.17-.54l1.05-1.3c1.41,1.33,2.8,1.6,4.19.54Z"/><path class="uuid-2ce18c21-6b1a-432c-b23c-fd6639372d35" d="M302.34,358.21l3.27,2.62,4.15-2.79-1.2-4.01,1.49-1,4.31,14.83-1.55,1.05-11.94-9.68,1.49-1ZM306.76,361.87c3.62,2.99,4.7,3.92,5.78,4.9-.47-1.41-.92-2.74-2.26-7.27l-3.52,2.37Z"/><path class="uuid-2ce18c21-6b1a-432c-b23c-fd6639372d35" d="M298.21,360.75l1.42-.87,7.69,12.53-1.42.87-7.69-12.53Z"/><path class="uuid-2ce18c21-6b1a-432c-b23c-fd6639372d35" d="M288.79,366.14c6.92,4.48,8.52,5.5,11.3,7.39-.74-1.3-1.5-2.67-5.78-10.43l1.44-.79,7.1,12.87-1.7.93c-7.79-5.07-9.35-6.04-11.25-7.34.94,1.57,1.8,3.09,5.8,10.35l-1.42.78-7.1-12.87,1.6-.88Z"/></g></svg>